<svg id="visual" viewBox="0 0 960 540" width="960" height="540" xmlns="http://www.w3.org/2000/svg" xmlns:xlink="http://www.w3.org/1999/xlink" version="1.1"><path d="M0 93L80 82L160 82L240 77L320 93L400 109L480 44L560 93L640 82L720 44L800 71L880 114L960 98L960 0L880 0L800 0L720 0L640 0L560 0L480 0L400 0L320 0L240 0L160 0L80 0L0 0Z" fill="#2200ad"></path><path d="M0 260L80 271L160 249L240 212L320 174L400 206L480 141L560 363L640 255L720 163L800 341L880 255L960 174L960 96L880 112L800 69L720 42L640 80L560 91L480 42L400 107L320 91L240 75L160 80L80 80L0 91Z" fill="#1137cb"></path><path d="M0 379L80 320L160 320L240 341L320 287L400 255L480 266L560 422L640 379L720 239L800 390L880 309L960 303L960 172L880 253L800 339L720 161L640 253L560 361L480 139L400 204L320 172L240 210L160 247L80 269L0 258Z" fill="#004cdc"></path><path d="M0 492L80 449L160 465L240 471L320 492L400 471L480 482L560 509L640 503L720 482L800 487L880 503L960 503L960 301L880 307L800 388L720 237L640 377L560 420L480 264L400 253L320 285L240 339L160 318L80 318L0 377Z" fill="#1137cb"></path><path d="M0 541L80 541L160 541L240 541L320 541L400 541L480 541L560 541L640 541L720 541L800 541L880 541L960 541L960 501L880 501L800 485L720 480L640 501L560 507L480 480L400 469L320 490L240 469L160 463L80 447L0 490Z" fill="#2200ad"></path></svg>