<svg id="visual" viewBox="0 0 960 540" width="960" height="540" xmlns="http://www.w3.org/2000/svg" xmlns:xlink="http://www.w3.org/1999/xlink" version="1.1"><g stroke-width="1" stroke-linejoin="bevel"><path d="M509.3 250L503.3 204L439.7 292Z" fill="#165b88" stroke="#165b88"></path><path d="M503.3 204L422.7 157L439.7 292Z" fill="#1c638f" stroke="#1c638f"></path><path d="M422.7 157L345 193L439.7 292Z" fill="#307da5" stroke="#307da5"></path><path d="M345 193L332 240L439.7 292Z" fill="#3786ad" stroke="#3786ad"></path><path d="M317 392L451.7 361L439.7 292Z" fill="#165b88" stroke="#165b88"></path><path d="M439.7 292L552.3 327L509.3 250Z" fill="#165b88" stroke="#165b88"></path><path d="M451.7 361L552.3 327L439.7 292Z" fill="#307da5" stroke="#307da5"></path><path d="M509.3 250L670 185L503.3 204Z" fill="#0f5280" stroke="#0f5280"></path><path d="M502.3 74L448.7 81L422.7 157Z" fill="#0f5280" stroke="#0f5280"></path><path d="M422.7 157L301 64L345 193Z" fill="#094a78" stroke="#094a78"></path><path d="M503.3 204L502.3 74L422.7 157Z" fill="#003a69" stroke="#003a69"></path><path d="M650 95L502.3 74L503.3 204Z" fill="#0f5280" stroke="#0f5280"></path><path d="M552.3 327L639 295L509.3 250Z" fill="#0f5280" stroke="#0f5280"></path><path d="M332 240L317 392L439.7 292Z" fill="#094a78" stroke="#094a78"></path><path d="M451.7 361L553.3 421L552.3 327Z" fill="#0f5280" stroke="#0f5280"></path><path d="M552.3 327L651 368L639 295Z" fill="#3e8fb4" stroke="#3e8fb4"></path><path d="M415.7 474L553.3 421L451.7 361Z" fill="#29749e" stroke="#29749e"></path><path d="M639 295L670 185L509.3 250Z" fill="#165b88" stroke="#165b88"></path><path d="M327 0L301 64L448.7 81Z" fill="#29749e" stroke="#29749e"></path><path d="M448.7 81L301 64L422.7 157Z" fill="#307da5" stroke="#307da5"></path><path d="M226.3 151L227.3 298L332 240Z" fill="#3e8fb4" stroke="#3e8fb4"></path><path d="M332 240L236.3 337L317 392Z" fill="#165b88" stroke="#165b88"></path><path d="M226.3 151L332 240L345 193Z" fill="#3786ad" stroke="#3786ad"></path><path d="M541.3 0L437.7 0L502.3 74Z" fill="#003a69" stroke="#003a69"></path><path d="M502.3 74L437.7 0L448.7 81Z" fill="#3e8fb4" stroke="#3e8fb4"></path><path d="M236.3 337L315 428L317 392Z" fill="#1c638f" stroke="#1c638f"></path><path d="M317 392L415.7 474L451.7 361Z" fill="#1c638f" stroke="#1c638f"></path><path d="M227.3 298L236.3 337L332 240Z" fill="#307da5" stroke="#307da5"></path><path d="M553.3 421L651 368L552.3 327Z" fill="#003a69" stroke="#003a69"></path><path d="M758.7 266L739.7 200L670 185Z" fill="#3786ad" stroke="#3786ad"></path><path d="M301 64L226.3 151L345 193Z" fill="#0f5280" stroke="#0f5280"></path><path d="M670 185L650 95L503.3 204Z" fill="#003a69" stroke="#003a69"></path><path d="M315 428L415.7 474L317 392Z" fill="#165b88" stroke="#165b88"></path><path d="M650 95L541.3 0L502.3 74Z" fill="#044271" stroke="#044271"></path><path d="M437.7 0L327 0L448.7 81Z" fill="#003a69" stroke="#003a69"></path><path d="M301 64L223.3 63L226.3 151Z" fill="#3786ad" stroke="#3786ad"></path><path d="M531.3 540L618 454L553.3 421Z" fill="#307da5" stroke="#307da5"></path><path d="M553.3 421L618 454L651 368Z" fill="#003a69" stroke="#003a69"></path><path d="M240.3 0L223.3 63L301 64Z" fill="#1c638f" stroke="#1c638f"></path><path d="M81.7 372L236.3 337L227.3 298Z" fill="#044271" stroke="#044271"></path><path d="M758.7 266L670 185L639 295Z" fill="#29749e" stroke="#29749e"></path><path d="M670 185L771.7 75L650 95Z" fill="#094a78" stroke="#094a78"></path><path d="M758.7 266L639 295L774.7 341Z" fill="#1c638f" stroke="#1c638f"></path><path d="M734.7 0L636 0L650 95Z" fill="#094a78" stroke="#094a78"></path><path d="M650 95L636 0L541.3 0Z" fill="#003a69" stroke="#003a69"></path><path d="M774.7 341L639 295L651 368Z" fill="#165b88" stroke="#165b88"></path><path d="M309 540L411.7 540L415.7 474Z" fill="#3786ad" stroke="#3786ad"></path><path d="M415.7 474L531.3 540L553.3 421Z" fill="#307da5" stroke="#307da5"></path><path d="M309 540L415.7 474L315 428Z" fill="#226c97" stroke="#226c97"></path><path d="M327 0L240.3 0L301 64Z" fill="#094a78" stroke="#094a78"></path><path d="M411.7 540L531.3 540L415.7 474Z" fill="#094a78" stroke="#094a78"></path><path d="M231.3 540L309 540L315 428Z" fill="#307da5" stroke="#307da5"></path><path d="M756.7 479L651 368L618 454Z" fill="#165b88" stroke="#165b88"></path><path d="M756.7 479L774.7 341L651 368Z" fill="#0f5280" stroke="#0f5280"></path><path d="M81.7 372L185.3 447L236.3 337Z" fill="#1c638f" stroke="#1c638f"></path><path d="M236.3 337L185.3 447L315 428Z" fill="#29749e" stroke="#29749e"></path><path d="M90.7 268L227.3 298L226.3 151Z" fill="#1c638f" stroke="#1c638f"></path><path d="M531.3 540L618 540L618 454Z" fill="#226c97" stroke="#226c97"></path><path d="M739.7 200L771.7 75L670 185Z" fill="#1c638f" stroke="#1c638f"></path><path d="M825.3 162L771.7 75L739.7 200Z" fill="#29749e" stroke="#29749e"></path><path d="M825.3 162L739.7 200L758.7 266Z" fill="#3786ad" stroke="#3786ad"></path><path d="M79.7 187L90.7 268L226.3 151Z" fill="#044271" stroke="#044271"></path><path d="M117.7 74L226.3 151L223.3 63Z" fill="#0f5280" stroke="#0f5280"></path><path d="M771.7 75L734.7 0L650 95Z" fill="#307da5" stroke="#307da5"></path><path d="M240.3 0L117.7 74L223.3 63Z" fill="#29749e" stroke="#29749e"></path><path d="M117.7 74L79.7 187L226.3 151Z" fill="#226c97" stroke="#226c97"></path><path d="M185.3 447L231.3 540L315 428Z" fill="#1c638f" stroke="#1c638f"></path><path d="M97.7 540L231.3 540L185.3 447Z" fill="#226c97" stroke="#226c97"></path><path d="M854.3 285L825.3 162L758.7 266Z" fill="#307da5" stroke="#307da5"></path><path d="M771.7 75L837.3 0L734.7 0Z" fill="#0f5280" stroke="#0f5280"></path><path d="M774.7 341L827.3 335L758.7 266Z" fill="#307da5" stroke="#307da5"></path><path d="M756.7 479L827.3 335L774.7 341Z" fill="#165b88" stroke="#165b88"></path><path d="M618 540L756.7 479L618 454Z" fill="#003a69" stroke="#003a69"></path><path d="M0 360L81.7 372L90.7 268Z" fill="#307da5" stroke="#307da5"></path><path d="M90.7 268L81.7 372L227.3 298Z" fill="#044271" stroke="#044271"></path><path d="M960 255L854.3 285L960 383Z" fill="#226c97" stroke="#226c97"></path><path d="M827.3 335L854.3 285L758.7 266Z" fill="#165b88" stroke="#165b88"></path><path d="M81.7 372L104.7 474L185.3 447Z" fill="#307da5" stroke="#307da5"></path><path d="M618 540L748.7 540L756.7 479Z" fill="#0f5280" stroke="#0f5280"></path><path d="M756.7 479L862.3 480L827.3 335Z" fill="#1c638f" stroke="#1c638f"></path><path d="M0 77L0 162L79.7 187Z" fill="#003a69" stroke="#003a69"></path><path d="M240.3 0L87.7 0L117.7 74Z" fill="#29749e" stroke="#29749e"></path><path d="M879.3 82L771.7 75L825.3 162Z" fill="#044271" stroke="#044271"></path><path d="M879.3 82L837.3 0L771.7 75Z" fill="#165b88" stroke="#165b88"></path><path d="M79.7 187L0 251L90.7 268Z" fill="#165b88" stroke="#165b88"></path><path d="M0 540L97.7 540L104.7 474Z" fill="#003a69" stroke="#003a69"></path><path d="M0 162L0 251L79.7 187Z" fill="#3786ad" stroke="#3786ad"></path><path d="M960 191L879.3 82L825.3 162Z" fill="#1c638f" stroke="#1c638f"></path><path d="M0 77L79.7 187L117.7 74Z" fill="#226c97" stroke="#226c97"></path><path d="M104.7 474L97.7 540L185.3 447Z" fill="#29749e" stroke="#29749e"></path><path d="M0 445L104.7 474L81.7 372Z" fill="#1c638f" stroke="#1c638f"></path><path d="M0 251L0 360L90.7 268Z" fill="#094a78" stroke="#094a78"></path><path d="M844.3 540L862.3 480L756.7 479Z" fill="#044271" stroke="#044271"></path><path d="M854.3 285L960 191L825.3 162Z" fill="#044271" stroke="#044271"></path><path d="M87.7 0L0 77L117.7 74Z" fill="#226c97" stroke="#226c97"></path><path d="M748.7 540L844.3 540L756.7 479Z" fill="#307da5" stroke="#307da5"></path><path d="M0 360L0 445L81.7 372Z" fill="#0f5280" stroke="#0f5280"></path><path d="M960 383L827.3 335L862.3 480Z" fill="#094a78" stroke="#094a78"></path><path d="M960 383L854.3 285L827.3 335Z" fill="#3786ad" stroke="#3786ad"></path><path d="M87.7 0L0 0L0 77Z" fill="#003a69" stroke="#003a69"></path><path d="M960 255L960 191L854.3 285Z" fill="#044271" stroke="#044271"></path><path d="M879.3 82L960 0L837.3 0Z" fill="#003a69" stroke="#003a69"></path><path d="M960 453L960 383L862.3 480Z" fill="#307da5" stroke="#307da5"></path><path d="M960 191L960 61L879.3 82Z" fill="#1c638f" stroke="#1c638f"></path><path d="M0 445L0 540L104.7 474Z" fill="#094a78" stroke="#094a78"></path><path d="M960 540L960 453L862.3 480Z" fill="#226c97" stroke="#226c97"></path><path d="M960 61L960 0L879.3 82Z" fill="#094a78" stroke="#094a78"></path><path d="M844.3 540L960 540L862.3 480Z" fill="#3786ad" stroke="#3786ad"></path></g></svg>