<svg id="visual" viewBox="0 0 900 600" width="900" height="600" xmlns="http://www.w3.org/2000/svg" xmlns:xlink="http://www.w3.org/1999/xlink" version="1.1"><g><g transform="translate(328 374)"><path d="M0 -77.2L66.9 -38.6L66.9 38.6L0 77.2L-66.9 38.6L-66.9 -38.6Z" fill="none" stroke="#161f5a" stroke-width="2"></path></g><g transform="translate(531 490)"><path d="M0 -76L65.8 -38L65.8 38L0 76L-65.8 38L-65.8 -38Z" fill="none" stroke="#161f5a" stroke-width="2"></path></g><g transform="translate(739 200)"><path d="M0 -63L54.6 -31.5L54.6 31.5L0 63L-54.6 31.5L-54.6 -31.5Z" fill="none" stroke="#161f5a" stroke-width="2"></path></g><g transform="translate(514 247)"><path d="M0 -57L49.4 -28.5L49.4 28.5L0 57L-49.4 28.5L-49.4 -28.5Z" fill="none" stroke="#161f5a" stroke-width="2"></path></g><g transform="translate(220 137)"><path d="M0 -47L40.7 -23.5L40.7 23.5L0 47L-40.7 23.5L-40.7 -23.5Z" fill="none" stroke="#161f5a" stroke-width="2"></path></g><g transform="translate(82 447)"><path d="M0 -47L40.7 -23.5L40.7 23.5L0 47L-40.7 23.5L-40.7 -23.5Z" fill="none" stroke="#161f5a" stroke-width="2"></path></g><g transform="translate(761 414)"><path d="M0 -45L39 -22.5L39 22.5L0 45L-39 22.5L-39 -22.5Z" stroke="#161f5a" fill="none" stroke-width="2"></path></g><g transform="translate(112 265)"><path d="M0 -49L42.4 -24.5L42.4 24.5L0 49L-42.4 24.5L-42.4 -24.5Z" stroke="#161f5a" fill="none" stroke-width="2"></path></g><g transform="translate(435 108)"><path d="M0 -59L51.1 -29.5L51.1 29.5L0 59L-51.1 29.5L-51.1 -29.5Z" stroke="#161f5a" fill="none" stroke-width="2"></path></g><g transform="translate(603 97)"><path d="M0 -59L51.1 -29.5L51.1 29.5L0 59L-51.1 29.5L-51.1 -29.5Z" stroke="#161f5a" fill="none" stroke-width="2"></path></g></g></svg>